<svg version="1.1" viewBox="0.0 0.0 256.0 256.0" fill="none" stroke="none" stroke-linecap="square" stroke-miterlimit="10" xmlns:xlink="http://www.w3.org/1999/xlink" xmlns="http://www.w3.org/2000/svg"><clipPath id="p.0"><path d="m0 0l256.0 0l0 256.0l-256.0 0l0 -256.0z" clip-rule="nonzero"/></clipPath><g clip-path="url(#p.0)"><path fill="#000000" fill-opacity="0.0" d="m0 0l256.0 0l0 256.0l-256.0 0z" fill-rule="evenodd"/><path fill="#000000" fill-opacity="0.0" d="m57.401573 128.0l0 0c0 -38.990433 31.607994 -70.59843 70.59843 -70.59843l0 0c18.723862 0 36.680847 7.4380264 49.920624 20.677803c13.239777 13.239769 20.677795 31.196754 20.677795 49.920624l0 0c0 38.990433 -31.607986 70.59842 -70.59842 70.59842l0 0c-38.990433 0 -70.59843 -31.607986 -70.59843 -70.59842z" fill-rule="evenodd"/><path stroke="#000000" stroke-width="12.0" stroke-linejoin="round" stroke-linecap="butt" d="m57.401573 128.0l0 0c0 -38.990433 31.607994 -70.59843 70.59843 -70.59843l0 0c18.723862 0 36.680847 7.4380264 49.920624 20.677803c13.239777 13.239769 20.677795 31.196754 20.677795 49.920624l0 0c0 38.990433 -31.607986 70.59842 -70.59842 70.59842l0 0c-38.990433 0 -70.59843 -31.607986 -70.59843 -70.59842z" fill-rule="evenodd"/><path fill="#000000" d="m46.06266 37.810776l25.51181 25.51181l-8.251968 8.251968l-25.51181 -25.51181z" fill-rule="evenodd"/><path fill="#000000" d="m191.7765 183.52724l26.425201 26.425201l-8.251968 8.251968l-26.425201 -26.425201z" fill-rule="evenodd"/><path fill="#000000" d="m133.84215 6.2859783l0 36.09449l-11.685043 0l0 -36.09449z" fill-rule="evenodd"/><path fill="#000000" d="m133.8403 212.35832l0 37.385834l-11.685043 0l0 -37.385834z" fill-rule="evenodd"/><path fill="#000000" d="m218.2061 46.071545l-25.51181 25.511806l-8.251968 -8.251965l25.51181 -25.511814z" fill-rule="evenodd"/><path fill="#000000" d="m72.48964 191.78539l-26.425198 26.425201l-8.251968 -8.251968l26.425198 -26.425201z" fill-rule="evenodd"/><path fill="#000000" d="m249.7309 133.85103l-36.094482 0l0 -11.685036l36.094482 0z" fill-rule="evenodd"/><path fill="#000000" d="m43.65855 133.84918l-37.385826 0l0 -11.685043l37.385826 0z" fill-rule="evenodd"/></g></svg>