<svg version="1.1" viewBox="0.0 0.0 256.0 256.0" fill="none" stroke="none" stroke-linecap="square" stroke-miterlimit="10" xmlns:xlink="http://www.w3.org/1999/xlink" xmlns="http://www.w3.org/2000/svg"><clipPath id="p.0"><path d="m0 0l256.0 0l0 256.0l-256.0 0l0 -256.0z" clip-rule="nonzero"/></clipPath><g clip-path="url(#p.0)"><path fill="#000000" fill-opacity="0.0" d="m0 0l256.0 0l0 256.0l-256.0 0z" fill-rule="evenodd"/><path fill="#000000" fill-opacity="0.0" d="m177.91489 77.795296l0 0c27.72731 27.727303 27.82602 72.58344 0.22047424 100.18897c-27.605545 27.605545 -72.46167 27.506836 -100.18898 -0.22045898l0 0c27.195312 2.274353 53.96422 -7.508789 73.211975 -26.756546c19.247757 -19.247757 29.0309 -46.016655 26.75653 -73.21197z" fill-rule="evenodd"/><path stroke="#000000" stroke-width="12.0" stroke-linejoin="round" stroke-linecap="butt" d="m177.91489 77.795296l0 0c27.72731 27.727303 27.82602 72.58344 0.22047424 100.18897c-27.605545 27.605545 -72.46167 27.506836 -100.18898 -0.22045898l0 0c27.195312 2.274353 53.96422 -7.508789 73.211975 -26.756546c19.247757 -19.247757 29.0309 -46.016655 26.75653 -73.21197z" fill-rule="evenodd"/></g></svg>